<svg xmlns="http://www.w3.org/2000/svg" viewBox="0 0 3436.13 1672.45" preserveAspectRatio="xMidYMid slice"><defs><style>.cls-10,.cls-4{fill:#43c5f9}.cls-7{fill:#055d99}.cls-12,.cls-8{fill:#fff}.cls-9{fill:none;stroke:#848484;stroke-linecap:round;stroke-linejoin:round;stroke-width:14.15px}.cls-10{opacity:.59;mix-blend-mode:multiply}.cls-12{opacity:.6}.cls-14{opacity:.69}</style></defs><g style="isolation:isolate"><g id="Layer_13" data-name="Layer 13"><path fill="#0978b9" d="M0 0v1672.45h3436.13V0H0z"/><path class="cls-4" d="M3707.84 1091.59c-280 6.39-293.88-83.09-562.77-4.59s-222.68 236.8-491.57 315.3-315.1-79.81-584-1.31-222.68 236.8-491.57 315.3-364.15-137.93-603.65 7.34c-64 38.83 142.9 119.27 163.88 191.14s-137.32 118.09-116.34 190 179.29 25.66 200.27 97.54-137.32 118.09-116.34 190 44.38 39.93 119.24 38.22c280-6.39 293.88 83.09 562.77 4.59s222.68-236.8 491.57-315.3 315.1 79.81 584 1.31 222.68-236.8 491.57-315.3 364.15 137.93 603.65-7.34c64-38.83-142.9-119.27-163.88-191.14s137.32-118.09 116.34-190-179.29-25.66-200.27-97.54 122.19-94.9 119.59-169.73c-1.68-48.3-47.64-60.2-122.49-58.49z" transform="translate(-729.4 -862.3)" opacity=".15"/><path opacity=".58" fill="#024f7d" d="M2624.58 135.6l-718.17 1225.99h1436.34L2624.58 135.6z"/><path opacity=".42" fill="#43c5f9" d="M1527.25 180.43h522.22v522.22h-522.22z"/><path class="cls-4" d="M1363.82 694.34l-462.96 790.31h925.91l-462.95-790.31z"/><path class="cls-7" transform="rotate(15.23 5862.35 -1282.521)" d="M2314.35 1471.5h1376.9v811.05h-1376.9z"/><path class="cls-8" d="M2495.56 586.77l-42.27 33.61-21.27-50.91-633.83-172.52-213.01 782.58 633.83 172.52 21.27 50.91 44.14-33.11 620.96 169.02 213-782.58-622.82-169.52z"/><path class="cls-9" d="M3140.1 1926.64c48.2 13.12 42.49 34.12 90.69 47.24s53.92-7.88 102.12 5.24 42.49 34.12 90.69 47.24 53.92-7.88 102.13 5.24 42.49 34.12 90.69 47.24M3114.38 2021.14c48.2 13.12 42.49 34.12 90.69 47.24s53.92-7.88 102.12 5.24 42.49 34.12 90.69 47.24 53.92-7.88 102.13 5.24 42.49 34.12 90.69 47.24M3088.66 2115.65c48.2 13.12 42.49 34.12 90.69 47.24s53.92-7.88 102.12 5.24 42.49 34.12 90.69 47.24 53.92-7.88 102.13 5.24 42.49 34.12 90.69 47.24" transform="translate(-729.4 -862.3)"/><path class="cls-8" transform="rotate(15.23 6316.732 -1030.435)" d="M3277.7 1982.26h359.17v293.86H3277.7z"/><path class="cls-9" d="M2599.59 1384.76c48.2 13.12 42.49 34.12 90.69 47.24s53.92-7.88 102.12 5.24 42.49 34.12 90.69 47.24 53.92-7.88 102.13 5.24 42.49 34.12 90.69 47.24M2573.87 1479.27c48.2 13.12 42.49 34.12 90.69 47.24s53.92-7.88 102.12 5.24 42.49 34.12 90.69 47.24 53.92-7.88 102.13 5.24 42.49 34.12 90.69 47.24M2548.15 1573.78c48.2 13.12 42.49 34.12 90.69 47.24s53.92-7.88 102.12 5.24 42.49 34.12 90.69 47.24 53.92-7.88 102.13 5.24 42.49 34.12 90.69 47.24M2525.28 1657.78c48.2 13.12 42.49 34.12 90.69 47.24s53.92-7.88 102.12 5.24 42.49 34.12 90.69 47.24 53.92-7.88 102.13 5.24 42.49 34.12 90.69 47.24M2499.56 1752.29c48.2 13.12 42.49 34.12 90.69 47.24s53.92-7.88 102.12 5.24 42.49 34.12 90.69 47.24 53.92-7.88 102.13 5.24 42.49 34.12 90.69 47.24M2473.83 1846.8c48.2 13.12 42.49 34.12 90.69 47.24s53.92-7.88 102.12 5.24 42.49 34.12 90.69 47.24 53.92-7.88 102.13 5.24 42.49 34.12 90.69 47.24M2448.11 1941.3c48.2 13.12 42.49 34.12 90.69 47.24s53.92-7.88 102.12 5.24 42.49 34.12 90.69 47.24 53.92-7.88 102.13 5.24 42.49 34.12 90.69 47.24M3240.14 1559.11c48.2 13.12 42.49 34.12 90.69 47.24s53.92-7.88 102.12 5.24 42.49 34.12 90.69 47.24 53.92-7.88 102.13 5.24 42.49 34.12 90.69 47.24M3214.42 1653.62c48.2 13.12 42.49 34.12 90.69 47.24s53.92-7.88 102.12 5.24 42.49 34.12 90.69 47.24 53.92-7.88 102.13 5.24 42.49 34.12 90.69 47.24M3188.69 1748.12c48.2 13.12 42.49 34.12 90.69 47.24s53.92-7.88 102.12 5.24 42.49 34.12 90.69 47.24 53.92-7.88 102.13 5.24 42.49 34.12 90.69 47.24M3165.83 1832.13c48.2 13.12 42.49 34.12 90.69 47.24s53.92-7.88 102.12 5.24 42.49 34.12 90.69 47.24 53.92-7.88 102.13 5.24 42.49 34.12 90.69 47.24" transform="translate(-729.4 -862.3)"/><path class="cls-10" transform="matrix(.96 .26 -.26 .96 -47.69 -1699.51)" d="M3347.76 2020.24h249.79v222.54h-249.79z"/><path class="cls-10" d="M2892.98 1194.64l-241.02-65.6-58.44 214.73 299.46-149.13z"/><path d="M1936.21 1938.75l-49.72 93.17-496-264.71a52.81 52.81 0 0 1-21.73-71.45 52.81 52.81 0 0 1 71.45-21.73z" transform="translate(-729.4 -862.3)" fill="#024f7d"/><path class="cls-12" transform="rotate(-61.91 424.767 1947.126)" d="M1455.39 1730.16H1561v80.07h-105.61z"/><path class="cls-12" d="M1157.08 1169.63l172.04 32.24-122.31-125.42-49.73 93.18z"/><path fill="#676767" d="M1281.19 1152.72l-19.49 36.52 67.42 12.63-47.93-49.15z"/><path class="cls-12" transform="rotate(-61.91 640.357 2084.868)" d="M1717.92 1693.61h11.73v428.66h-11.73z"/><path class="cls-12" transform="rotate(-61.92 659.221 2049.032)" d="M1736.94 1657.98h11.73v428.66h-11.73z"/><g class="cls-14"><path class="cls-7" d="M1079.7 1246.91q6.26-1.26 12.57-2.15l-9.57 1.29a146.89 146.89 0 0 1 37.77-.28l-9.57-1.29a150.65 150.65 0 0 1 37.69 10.72l-8.6-3.63c18.93 8 36.94 18 56.11 25.52a163.13 163.13 0 0 0 67.45 11.13c29.88-1.52 59.86-8.94 86.27-23.18 18.94-10.22 35.44-24.87 49.7-40.87 13.54-15.19 26.11-31.23 42.28-43.78l-7.29 5.63a134.8 134.8 0 0 1 28.47-16.61l-8.6 3.63a175.9 175.9 0 0 1 43.9-11.71l-9.57 1.29a146.89 146.89 0 0 1 37.77-.28l-9.57-1.29a150.65 150.65 0 0 1 37.69 10.72l-8.6-3.63c18.93 8 36.94 18 56.11 25.52a163.13 163.13 0 0 0 67.45 11.13c29.88-1.52 59.86-8.94 86.27-23.18 18.94-10.22 35.44-24.87 49.7-40.87 13.54-15.19 26.11-31.23 42.29-43.78l-7.29 5.63a134.81 134.81 0 0 1 28.47-16.61l-8.6 3.63a175.91 175.91 0 0 1 43.9-11.71l-9.57 1.29a146.9 146.9 0 0 1 37.78-.29l-9.57-1.29a150.66 150.66 0 0 1 37.69 10.72l-8.6-3.63c21.92 9.32 42.58 21.39 65.31 28.85 30.45 10 62.4 9.39 93.52 3.13 8.49-1.71 17.26-9.27 21.51-16.54 4.52-7.72 6.43-19.09 3.63-27.74-6.35-19.63-24.47-29.13-44.28-25.14q-6.26 1.26-12.57 2.15l9.57-1.29a146.9 146.9 0 0 1-37.78.29l9.57 1.29a150.66 150.66 0 0 1-37.69-10.72l8.6 3.63c-18.93-8-36.94-18-56.11-25.52a163.14 163.14 0 0 0-67.45-11.13c-29.88 1.52-59.86 8.94-86.27 23.18-18.94 10.22-35.44 24.87-49.7 40.87-13.54 15.19-26.11 31.23-42.29 43.78l7.29-5.63a134.81 134.81 0 0 1-28.47 16.61l8.6-3.63a175.91 175.91 0 0 1-43.9 11.71l9.57-1.29a146.89 146.89 0 0 1-37.77.28l9.57 1.29a150.65 150.65 0 0 1-37.69-10.72l8.6 3.63c-18.93-8-36.94-18-56.11-25.52a163.13 163.13 0 0 0-67.45-11.13c-29.88 1.52-59.86 8.94-86.27 23.18-18.94 10.22-35.44 24.87-49.7 40.87-13.54 15.19-26.11 31.23-42.28 43.78l7.29-5.63a134.8 134.8 0 0 1-28.47 16.61l8.6-3.63a175.9 175.9 0 0 1-43.9 11.71l9.57-1.29a146.89 146.89 0 0 1-37.77.28l9.57 1.29a150.65 150.65 0 0 1-37.69-10.72l8.6 3.63c-21.92-9.32-42.58-21.39-65.3-28.85-30.45-10-62.4-9.39-93.51-3.13-8.49 1.71-17.26 9.27-21.51 16.54-4.52 7.72-6.43 19.09-3.63 27.74 6.35 19.63 24.47 29.13 44.28 25.14z" transform="translate(-729.4 -862.3)"/></g><g class="cls-14"><path class="cls-7" d="M909 1508.68q6.26-1.26 12.57-2.15l-9.57 1.29a146.89 146.89 0 0 1 37.77-.28l-9.57-1.29a150.65 150.65 0 0 1 37.7 10.75l-8.6-3.63c18.93 8 36.94 18 56.11 25.52a163.13 163.13 0 0 0 67.45 11.13c29.88-1.52 59.86-8.94 86.27-23.18 18.94-10.22 35.44-24.87 49.7-40.87 13.54-15.19 26.11-31.23 42.28-43.78l-7.29 5.63a134.8 134.8 0 0 1 28.47-16.61l-8.6 3.63a175.9 175.9 0 0 1 43.9-11.71l-9.57 1.29a146.89 146.89 0 0 1 37.77-.28l-9.57-1.29a150.65 150.65 0 0 1 37.69 10.72l-8.6-3.63c18.93 8 36.94 18 56.11 25.52a163.13 163.13 0 0 0 67.45 11.13c29.88-1.52 59.86-8.94 86.27-23.18 18.94-10.22 35.44-24.87 49.7-40.87 13.54-15.19 26.11-31.23 42.29-43.78l-7.29 5.63a134.81 134.81 0 0 1 28.47-16.61l-8.6 3.63a175.91 175.91 0 0 1 43.9-11.71l-9.57 1.29a146.9 146.9 0 0 1 37.78-.29l-9.57-1.29a150.66 150.66 0 0 1 37.69 10.72l-8.6-3.63c21.92 9.32 42.58 21.39 65.31 28.85 30.45 10 62.4 9.39 93.52 3.13 8.49-1.71 17.26-9.27 21.51-16.54 4.52-7.72 6.43-19.09 3.63-27.74-6.35-19.63-24.47-29.13-44.28-25.14q-6.26 1.26-12.57 2.15l9.57-1.29a146.9 146.9 0 0 1-37.78.29l9.57 1.29a150.66 150.66 0 0 1-37.69-10.72l8.6 3.63c-18.93-8-36.94-18-56.11-25.52a163.14 163.14 0 0 0-67.45-11.13c-29.88 1.52-59.86 8.94-86.27 23.18-18.94 10.22-35.44 24.87-49.7 40.87-13.54 15.19-26.11 31.23-42.29 43.78l7.29-5.63a134.81 134.81 0 0 1-28.47 16.61l8.6-3.63a175.91 175.91 0 0 1-43.9 11.71l9.57-1.29a146.89 146.89 0 0 1-37.77.28l9.57 1.29a150.65 150.65 0 0 1-37.69-10.72l8.6 3.63c-18.93-8-36.94-18-56.11-25.52a163.13 163.13 0 0 0-67.45-11.13c-29.88 1.52-59.86 8.94-86.27 23.18-18.94 10.22-35.44 24.87-49.7 40.87-13.54 15.19-26.11 31.23-42.28 43.78l7.29-5.63a134.8 134.8 0 0 1-28.47 16.61l8.6-3.63a175.9 175.9 0 0 1-43.9 11.71l9.57-1.29a146.89 146.89 0 0 1-37.77.28l9.57 1.29a150.65 150.65 0 0 1-37.69-10.72l8.6 3.63c-21.92-9.32-42.58-21.39-65.3-28.85-30.45-10-62.4-9.39-93.51-3.13-8.49 1.71-17.26 9.27-21.51 16.54-4.52 7.72-6.43 19.09-3.63 27.74 6.35 19.63 24.47 29.13 44.28 25.14z" transform="translate(-729.4 -862.3)"/></g></g></g></svg>